<svg width="690" height="749" viewBox="0 0 690 749" fill="none" xmlns="http://www.w3.org/2000/svg">
<mask id="mask0_2_4656" style="mask-type:luminance" maskUnits="userSpaceOnUse" x="186" y="93" width="65" height="75">
<path d="M186.02 93.5801L213.25 167.069L250.3 138.41L186.02 93.5801Z" fill="white"/>
</mask>
<g mask="url(#mask0_2_4656)">
<path d="M186.46 93.5801H186.02V167.069H186.46V93.5801Z" fill="#4D4E4E"/>
<path d="M186.9 93.5801H186.46V167.069H186.9V93.5801Z" fill="#4E4F4F"/>
<path d="M187.35 93.5801H186.91V167.069H187.35V93.5801Z" fill="#4F5050"/>
<path d="M187.79 93.5801H187.35V167.069H187.79V93.5801Z" fill="#505151"/>
<path d="M188.23 93.5801H187.79V167.069H188.23V93.5801Z" fill="#515252"/>
<path d="M188.68 93.5801H188.24V167.069H188.68V93.5801Z" fill="#525353"/>
<path d="M189.12 93.5801H188.68V167.069H189.12V93.5801Z" fill="#525454"/>
<path d="M189.56 93.5801H189.12V167.069H189.56V93.5801Z" fill="#535555"/>
<path d="M190.01 93.5801H189.57V167.069H190.01V93.5801Z" fill="#545656"/>
<path d="M190.45 93.5801H190.01V167.069H190.45V93.5801Z" fill="#555757"/>
<path d="M190.89 93.5801H190.45V167.069H190.89V93.5801Z" fill="#565858"/>
<path d="M191.34 93.5801H190.9V167.069H191.34V93.5801Z" fill="#575959"/>
<path d="M191.78 93.5801H191.34V167.069H191.78V93.5801Z" fill="#58595A"/>
<path d="M192.22 93.5801H191.78V167.069H192.22V93.5801Z" fill="#595A5B"/>
<path d="M192.67 93.5801H192.23V167.069H192.67V93.5801Z" fill="#5A5B5C"/>
<path d="M193.11 93.5801H192.67V167.069H193.11V93.5801Z" fill="#5B5C5D"/>
<path d="M193.55 93.5801H193.11V167.069H193.55V93.5801Z" fill="#5B5D5E"/>
<path d="M194 93.5801H193.56V167.069H194V93.5801Z" fill="#5C5E5F"/>
<path d="M194.44 93.5801H194V167.069H194.44V93.5801Z" fill="#5D5F60"/>
<path d="M194.88 93.5801H194.44V167.069H194.88V93.5801Z" fill="#5E6061"/>
<path d="M195.33 93.5801H194.89V167.069H195.33V93.5801Z" fill="#5F6162"/>
<path d="M195.77 93.5801H195.33V167.069H195.77V93.5801Z" fill="#606263"/>
<path d="M196.21 93.5801H195.77V167.069H196.21V93.5801Z" fill="#616364"/>
<path d="M196.66 93.5801H196.22V167.069H196.66V93.5801Z" fill="#626465"/>
<path d="M197.1 93.5801H196.66V167.069H197.1V93.5801Z" fill="#636566"/>
<path d="M197.54 93.5801H197.1V167.069H197.54V93.5801Z" fill="#646667"/>
<path d="M197.99 93.5801H197.55V167.069H197.99V93.5801Z" fill="#646768"/>
<path d="M198.43 93.5801H197.99V167.069H198.43V93.5801Z" fill="#656869"/>
<path d="M198.87 93.5801H198.43V167.069H198.87V93.5801Z" fill="#66696A"/>
<path d="M199.32 93.5801H198.88V167.069H199.32V93.5801Z" fill="#676A6B"/>
<path d="M199.76 93.5801H199.32V167.069H199.76V93.5801Z" fill="#686B6C"/>
<path d="M200.2 93.5801H199.76V167.069H200.2V93.5801Z" fill="#696C6D"/>
<path d="M200.65 93.5801H200.21V167.069H200.65V93.5801Z" fill="#6A6D6E"/>
<path d="M201.09 93.5801H200.65V167.069H201.09V93.5801Z" fill="#6B6E6F"/>
<path d="M201.53 93.5801H201.09V167.069H201.53V93.5801Z" fill="#6C6F70"/>
<path d="M201.98 93.5801H201.54V167.069H201.98V93.5801Z" fill="#6D7071"/>
<path d="M202.42 93.5801H201.98V167.069H202.42V93.5801Z" fill="#6D7072"/>
<path d="M202.86 93.5801H202.42V167.069H202.86V93.5801Z" fill="#6E7173"/>
<path d="M203.31 93.5801H202.87V167.069H203.31V93.5801Z" fill="#6F7274"/>
<path d="M203.75 93.5801H203.31V167.069H203.75V93.5801Z" fill="#707375"/>
<path d="M204.19 93.5801H203.75V167.069H204.19V93.5801Z" fill="#717476"/>
<path d="M204.64 93.5801H204.2V167.069H204.64V93.5801Z" fill="#727577"/>
<path d="M205.08 93.5801H204.64V167.069H205.08V93.5801Z" fill="#737678"/>
<path d="M205.52 93.5801H205.08V167.069H205.52V93.5801Z" fill="#747779"/>
<path d="M205.97 93.5801H205.53V167.069H205.97V93.5801Z" fill="#75787A"/>
<path d="M206.41 93.5801H205.97V167.069H206.41V93.5801Z" fill="#76797B"/>
<path d="M206.85 93.5801H206.41V167.069H206.85V93.5801Z" fill="#767A7C"/>
<path d="M207.3 93.5801H206.86V167.069H207.3V93.5801Z" fill="#777B7D"/>
<path d="M207.74 93.5801H207.3V167.069H207.74V93.5801Z" fill="#787C7E"/>
<path d="M208.18 93.5801H207.74V167.069H208.18V93.5801Z" fill="#797D7F"/>
<path d="M208.63 93.5801H208.19V167.069H208.63V93.5801Z" fill="#7A7E80"/>
<path d="M209.07 93.5801H208.63V167.069H209.07V93.5801Z" fill="#7B7F81"/>
<path d="M209.51 93.5801H209.07V167.069H209.51V93.5801Z" fill="#7C8082"/>
<path d="M209.96 93.5801H209.52V167.069H209.96V93.5801Z" fill="#7D8183"/>
<path d="M210.4 93.5801H209.96V167.069H210.4V93.5801Z" fill="#7E8284"/>
<path d="M210.84 93.5801H210.4V167.069H210.84V93.5801Z" fill="#7F8385"/>
<path d="M211.29 93.5801H210.85V167.069H211.29V93.5801Z" fill="#808486"/>
<path d="M211.73 93.5801H211.29V167.069H211.73V93.5801Z" fill="#808587"/>
<path d="M212.17 93.5801H211.73V167.069H212.17V93.5801Z" fill="#818688"/>
<path d="M212.62 93.5801H212.18V167.069H212.62V93.5801Z" fill="#828789"/>
<path d="M213.06 93.5801H212.62V167.069H213.06V93.5801Z" fill="#83878A"/>
<path d="M213.5 93.5801H213.06V167.069H213.5V93.5801Z" fill="#84888B"/>
<path d="M213.95 93.5801H213.51V167.069H213.95V93.5801Z" fill="#85898C"/>
<path d="M214.39 93.5801H213.95V167.069H214.39V93.5801Z" fill="#868A8D"/>
<path d="M214.83 93.5801H214.39V167.069H214.83V93.5801Z" fill="#878B8E"/>
<path d="M215.28 93.5801H214.84V167.069H215.28V93.5801Z" fill="#888C8F"/>
<path d="M215.72 93.5801H215.28V167.069H215.72V93.5801Z" fill="#898D90"/>
<path d="M216.16 93.5801H215.72V167.069H216.16V93.5801Z" fill="#898E91"/>
<path d="M216.61 93.5801H216.17V167.069H216.61V93.5801Z" fill="#8A8F92"/>
<path d="M217.05 93.5801H216.61V167.069H217.05V93.5801Z" fill="#8B9093"/>
<path d="M217.49 93.5801H217.05V167.069H217.49V93.5801Z" fill="#8C9194"/>
<path d="M217.94 93.5801H217.5V167.069H217.94V93.5801Z" fill="#8D9295"/>
<path d="M218.38 93.5801H217.94V167.069H218.38V93.5801Z" fill="#8E9396"/>
<path d="M218.82 93.5801H218.38V167.069H218.82V93.5801Z" fill="#8F9497"/>
<path d="M219.27 93.5801H218.83V167.069H219.27V93.5801Z" fill="#909598"/>
<path d="M219.71 93.5801H219.27V167.069H219.71V93.5801Z" fill="#919699"/>
<path d="M220.15 93.5801H219.71V167.069H220.15V93.5801Z" fill="#92979A"/>
<path d="M220.6 93.5801H220.16V167.069H220.6V93.5801Z" fill="#92989C"/>
<path d="M221.04 93.5801H220.6V167.069H221.04V93.5801Z" fill="#93999D"/>
<path d="M221.48 93.5801H221.04V167.069H221.48V93.5801Z" fill="#949A9E"/>
<path d="M221.93 93.5801H221.49V167.069H221.93V93.5801Z" fill="#959B9F"/>
<path d="M222.37 93.5801H221.93V167.069H222.37V93.5801Z" fill="#969CA0"/>
<path d="M222.81 93.5801H222.37V167.069H222.81V93.5801Z" fill="#979DA1"/>
<path d="M223.26 93.5801H222.82V167.069H223.26V93.5801Z" fill="#989EA2"/>
<path d="M223.7 93.5801H223.26V167.069H223.7V93.5801Z" fill="#999EA3"/>
<path d="M224.14 93.5801H223.7V167.069H224.14V93.5801Z" fill="#9A9FA4"/>
<path d="M224.59 93.5801H224.15V167.069H224.59V93.5801Z" fill="#9BA0A5"/>
<path d="M225.03 93.5801H224.59V167.069H225.03V93.5801Z" fill="#9CA1A6"/>
<path d="M225.47 93.5801H225.03V167.069H225.47V93.5801Z" fill="#9CA2A7"/>
<path d="M225.92 93.5801H225.48V167.069H225.92V93.5801Z" fill="#9DA3A8"/>
<path d="M226.36 93.5801H225.92V167.069H226.36V93.5801Z" fill="#9EA4A9"/>
<path d="M226.8 93.5801H226.36V167.069H226.8V93.5801Z" fill="#9FA5AA"/>
<path d="M227.25 93.5801H226.81V167.069H227.25V93.5801Z" fill="#A0A6AB"/>
<path d="M227.69 93.5801H227.25V167.069H227.69V93.5801Z" fill="#A1A7AC"/>
<path d="M228.13 93.5801H227.69V167.069H228.13V93.5801Z" fill="#A2A8AD"/>
<path d="M228.58 93.5801H228.14V167.069H228.58V93.5801Z" fill="#A3A9AE"/>
<path d="M229.02 93.5801H228.58V167.069H229.02V93.5801Z" fill="#A4AAAF"/>
<path d="M229.46 93.5801H229.02V167.069H229.46V93.5801Z" fill="#A5ABB0"/>
<path d="M229.91 93.5801H229.47V167.069H229.91V93.5801Z" fill="#A5ACB1"/>
<path d="M230.35 93.5801H229.91V167.069H230.35V93.5801Z" fill="#A6ADB2"/>
<path d="M230.79 93.5801H230.35V167.069H230.79V93.5801Z" fill="#A7AEB3"/>
<path d="M231.24 93.5801H230.8V167.069H231.24V93.5801Z" fill="#A8AFB4"/>
<path d="M231.68 93.5801H231.24V167.069H231.68V93.5801Z" fill="#A9B0B5"/>
<path d="M232.12 93.5801H231.68V167.069H232.12V93.5801Z" fill="#AAB1B6"/>
<path d="M232.57 93.5801H232.13V167.069H232.57V93.5801Z" fill="#ABB2B7"/>
<path d="M233.01 93.5801H232.57V167.069H233.01V93.5801Z" fill="#ACB3B8"/>
<path d="M233.45 93.5801H233.01V167.069H233.45V93.5801Z" fill="#ADB4B9"/>
<path d="M233.9 93.5801H233.46V167.069H233.9V93.5801Z" fill="#AEB5BA"/>
<path d="M234.34 93.5801H233.9V167.069H234.34V93.5801Z" fill="#AEB5BB"/>
<path d="M234.78 93.5801H234.34V167.069H234.78V93.5801Z" fill="#AFB6BC"/>
<path d="M235.23 93.5801H234.79V167.069H235.23V93.5801Z" fill="#B0B7BD"/>
<path d="M235.67 93.5801H235.23V167.069H235.67V93.5801Z" fill="#B1B8BE"/>
<path d="M236.11 93.5801H235.67V167.069H236.11V93.5801Z" fill="#B2B9BF"/>
<path d="M236.56 93.5801H236.12V167.069H236.56V93.5801Z" fill="#B3BAC0"/>
<path d="M237 93.5801H236.56V167.069H237V93.5801Z" fill="#B4BBC1"/>
<path d="M237.44 93.5801H237V167.069H237.44V93.5801Z" fill="#B5BCC2"/>
<path d="M237.89 93.5801H237.45V167.069H237.89V93.5801Z" fill="#B6BDC3"/>
<path d="M238.33 93.5801H237.89V167.069H238.33V93.5801Z" fill="#B7BEC4"/>
<path d="M238.77 93.5801H238.33V167.069H238.77V93.5801Z" fill="#B8BFC5"/>
<path d="M239.22 93.5801H238.78V167.069H239.22V93.5801Z" fill="#B8C0C6"/>
<path d="M239.66 93.5801H239.22V167.069H239.66V93.5801Z" fill="#B9C1C7"/>
<path d="M240.1 93.5801H239.66V167.069H240.1V93.5801Z" fill="#BAC2C8"/>
<path d="M240.55 93.5801H240.11V167.069H240.55V93.5801Z" fill="#BBC3C9"/>
<path d="M240.99 93.5801H240.55V167.069H240.99V93.5801Z" fill="#BCC4CA"/>
<path d="M241.43 93.5801H240.99V167.069H241.43V93.5801Z" fill="#BDC5CB"/>
<path d="M241.88 93.5801H241.44V167.069H241.88V93.5801Z" fill="#BEC6CC"/>
<path d="M242.32 93.5801H241.88V167.069H242.32V93.5801Z" fill="#BFC7CD"/>
<path d="M242.76 93.5801H242.32V167.069H242.76V93.5801Z" fill="#C0C8CE"/>
<path d="M243.21 93.5801H242.77V167.069H243.21V93.5801Z" fill="#C1C9CF"/>
<path d="M243.65 93.5801H243.21V167.069H243.65V93.5801Z" fill="#C1CAD0"/>
<path d="M244.09 93.5801H243.65V167.069H244.09V93.5801Z" fill="#C2CBD1"/>
<path d="M244.54 93.5801H244.1V167.069H244.54V93.5801Z" fill="#C3CCD2"/>
<path d="M244.98 93.5801H244.54V167.069H244.98V93.5801Z" fill="#C4CCD3"/>
<path d="M245.42 93.5801H244.98V167.069H245.42V93.5801Z" fill="#C5CDD4"/>
<path d="M245.87 93.5801H245.43V167.069H245.87V93.5801Z" fill="#C6CED5"/>
<path d="M246.31 93.5801H245.87V167.069H246.31V93.5801Z" fill="#C7CFD6"/>
<path d="M246.75 93.5801H246.31V167.069H246.75V93.5801Z" fill="#C8D0D7"/>
<path d="M247.2 93.5801H246.76V167.069H247.2V93.5801Z" fill="#C9D1D8"/>
<path d="M247.64 93.5801H247.2V167.069H247.64V93.5801Z" fill="#CAD2D9"/>
<path d="M248.08 93.5801H247.64V167.069H248.08V93.5801Z" fill="#CAD3DA"/>
<path d="M248.53 93.5801H248.09V167.069H248.53V93.5801Z" fill="#CBD4DB"/>
<path d="M248.97 93.5801H248.53V167.069H248.97V93.5801Z" fill="#CCD5DC"/>
<path d="M249.41 93.5801H248.97V167.069H249.41V93.5801Z" fill="#CDD6DD"/>
<path d="M249.86 93.5801H249.42V167.069H249.86V93.5801Z" fill="#CED7DE"/>
<path d="M250.3 93.5801H249.86V167.069H250.3V93.5801Z" fill="#CFD8DF"/>
</g>
<mask id="mask1_2_4656" style="mask-type:luminance" maskUnits="userSpaceOnUse" x="0" y="0" width="690" height="749">
<path d="M689.05 0H0V748.05H689.05V0Z" fill="white"/>
</mask>
<g mask="url(#mask1_2_4656)">
<mask id="mask2_2_4656" style="mask-type:luminance" maskUnits="userSpaceOnUse" x="237" y="159" width="772" height="590">
<path d="M984.6 600.729C959.82 556.159 916.7 524.149 916.7 524.149C916.7 524.149 945.75 567.81 957.76 602.43C957.9 602.84 957.88 603.11 957.99 603.5C959.08 606.58 960.21 609.65 961.07 612.74C968.58 639.83 968.05 659.269 959.49 670.529C953.2 678.799 942.1 682.99 926.49 682.99C879.24 682.99 802.43 644.74 764.5 622.13C641.62 548.91 473.75 392.319 364.44 285.319L237.83 159.43L243.96 168.22C244.78 169.4 324.88 295.98 398.36 376.34L398.82 376.84C403.92 382.31 409.01 387.78 414.14 393.22C414.63 393.79 463.63 451.16 532.31 517.16C595.81 578.17 689.64 659.29 776.06 699.22L776.13 699.25C835.53 731.65 886.11 748.069 926.48 748.069C946.33 748.069 963.79 744.01 978.38 735.99C1016.18 715.23 1018.33 666.03 984.6 600.75V600.729Z" fill="white"/>
</mask>
<g mask="url(#mask2_2_4656)">
<path d="M249.12 159.42L240.15 164.99L237.83 161.26V159.42H249.12Z" fill="#888C8F"/>
<path d="M262.14 159.42L243.78 170.83L240.15 164.99L249.12 159.42H262.14Z" fill="#898D90"/>
<path d="M275.16 159.42L247.41 176.66L243.78 170.83L262.14 159.42H275.16Z" fill="#898E91"/>
<path d="M288.18 159.42L251.03 182.5L247.41 176.66L275.16 159.42H288.18Z" fill="#8A8F92"/>
<path d="M301.2 159.42L254.66 188.34L251.03 182.5L288.18 159.42H301.2Z" fill="#8B9093"/>
<path d="M314.22 159.42L258.29 194.17L254.66 188.34L301.2 159.42H314.22Z" fill="#8C9194"/>
<path d="M327.24 159.42L261.91 200.01L258.29 194.17L314.22 159.42H327.24Z" fill="#8D9295"/>
<path d="M340.26 159.42L265.54 205.85L261.91 200.01L327.24 159.42H340.26Z" fill="#8E9396"/>
<path d="M353.27 159.42L269.17 211.68L265.54 205.85L340.26 159.42H353.27Z" fill="#8F9497"/>
<path d="M366.29 159.42L272.79 217.52L269.17 211.68L353.27 159.42H366.29Z" fill="#909598"/>
<path d="M379.31 159.42L276.42 223.359L272.79 217.52L366.29 159.42H379.31Z" fill="#919699"/>
<path d="M392.33 159.42L280.05 229.189L276.42 223.359L379.31 159.42H392.33Z" fill="#92979A"/>
<path d="M405.35 159.42L283.67 235.029L280.05 229.189L392.33 159.42H405.35Z" fill="#92989C"/>
<path d="M418.37 159.42L287.3 240.87L283.67 235.029L405.35 159.42H418.37Z" fill="#93999D"/>
<path d="M431.39 159.42L290.93 246.7L287.3 240.87L418.37 159.42H431.39Z" fill="#949A9E"/>
<path d="M444.41 159.42L294.55 252.54L290.93 246.7L431.39 159.42H444.41Z" fill="#959B9F"/>
<path d="M457.43 159.42L298.18 258.37L294.55 252.54L444.41 159.42H457.43Z" fill="#969CA0"/>
<path d="M470.45 159.42L301.81 264.21L298.18 258.37L457.43 159.42H470.45Z" fill="#979DA1"/>
<path d="M483.47 159.42L305.43 270.05L301.81 264.21L470.45 159.42H483.47Z" fill="#989EA2"/>
<path d="M496.49 159.42L309.06 275.88L305.43 270.05L483.47 159.42H496.49Z" fill="#999EA3"/>
<path d="M509.51 159.42L312.69 281.72L309.06 275.88L496.49 159.42H509.51Z" fill="#9A9FA4"/>
<path d="M522.53 159.42L316.32 287.56L312.69 281.72L509.51 159.42H522.53Z" fill="#9BA0A5"/>
<path d="M535.55 159.42L319.94 293.39L316.32 287.56L522.53 159.42H535.55Z" fill="#9CA1A6"/>
<path d="M548.57 159.42L323.57 299.229L319.94 293.39L535.55 159.42H548.57Z" fill="#9CA2A7"/>
<path d="M561.59 159.42L327.2 305.069L323.57 299.229L548.57 159.42H561.59Z" fill="#9DA3A8"/>
<path d="M574.6 159.42L330.82 310.899L327.2 305.069L561.59 159.42H574.6Z" fill="#9EA4A9"/>
<path d="M587.62 159.42L334.45 316.74L330.82 310.899L574.6 159.42H587.62Z" fill="#9FA5AA"/>
<path d="M600.64 159.42L338.08 322.58L334.45 316.74L587.62 159.42H600.64Z" fill="#A0A6AB"/>
<path d="M613.66 159.42L341.7 328.41L338.08 322.58L600.64 159.42H613.66Z" fill="#A1A7AC"/>
<path d="M626.68 159.42L345.33 334.25L341.7 328.41L613.66 159.42H626.68Z" fill="#A2A8AD"/>
<path d="M639.7 159.42L348.96 340.09L345.33 334.25L626.68 159.42H639.7Z" fill="#A3A9AE"/>
<path d="M652.72 159.42L352.58 345.92L348.96 340.09L639.7 159.42H652.72Z" fill="#A4AAAF"/>
<path d="M665.74 159.42L356.21 351.76L352.58 345.92L652.72 159.42H665.74Z" fill="#A5ABB0"/>
<path d="M678.76 159.42L359.84 357.6L356.21 351.76L665.74 159.42H678.76Z" fill="#A5ACB1"/>
<path d="M691.78 159.42L363.46 363.43L359.84 357.6L678.76 159.42H691.78Z" fill="#A6ADB2"/>
<path d="M704.8 159.42L367.09 369.27L363.46 363.43L691.78 159.42H704.8Z" fill="#A7AEB3"/>
<path d="M714.43 159.42L715.38 160.939L370.72 375.109L367.09 369.27L704.8 159.42H714.43Z" fill="#A8AFB4"/>
<path d="M715.791 160.547L371.146 374.736L374.772 380.571L719.418 166.382L715.791 160.547Z" fill="#A9B0B5"/>
<path d="M719.427 166.38L374.781 380.569L378.408 386.404L723.053 172.215L719.427 166.38Z" fill="#AAB1B6"/>
<path d="M723.044 172.22L378.398 386.409L382.025 392.244L726.67 178.055L723.044 172.22Z" fill="#ABB2B7"/>
<path d="M726.675 178.056L382.029 392.245L385.656 398.08L730.301 183.891L726.675 178.056Z" fill="#ACB3B8"/>
<path d="M730.3 183.889L385.655 398.078L389.281 403.913L733.926 189.724L730.3 183.889Z" fill="#ADB4B9"/>
<path d="M733.927 189.729L389.282 403.918L392.909 409.753L737.554 195.564L733.927 189.729Z" fill="#AEB5BA"/>
<path d="M737.548 195.565L392.902 409.754L396.529 415.589L741.174 201.4L737.548 195.565Z" fill="#AEB5BB"/>
<path d="M741.183 201.398L396.538 415.587L400.164 421.422L744.81 207.233L741.183 201.398Z" fill="#AFB6BC"/>
<path d="M744.811 207.239L400.166 421.428L403.792 427.262L748.437 213.073L744.811 207.239Z" fill="#B0B7BD"/>
<path d="M748.431 213.074L403.786 427.263L407.412 433.098L752.057 218.909L748.431 213.074Z" fill="#B1B8BE"/>
<path d="M752.067 218.908L407.422 433.097L411.048 438.932L755.694 224.743L752.067 218.908Z" fill="#B2B9BF"/>
<path d="M755.684 224.747L411.039 438.937L414.665 444.772L759.311 230.582L755.684 224.747Z" fill="#B3BAC0"/>
<path d="M759.315 230.582L414.669 444.771L418.296 450.607L762.941 236.417L759.315 230.582Z" fill="#B4BBC1"/>
<path d="M762.951 236.416L418.305 450.605L421.932 456.441L766.577 242.251L762.951 236.416Z" fill="#B5BCC2"/>
<path d="M766.571 242.242L421.926 456.432L425.552 462.267L770.198 248.078L766.571 242.242Z" fill="#B6BDC3"/>
<path d="M770.198 248.091L425.553 462.28L429.179 468.115L773.824 253.926L770.198 248.091Z" fill="#B7BEC4"/>
<path d="M773.824 253.925L429.178 468.114L432.805 473.949L777.45 259.76L773.824 253.925Z" fill="#B8BFC5"/>
<path d="M777.454 259.751L432.809 473.94L436.435 479.775L781.08 265.586L777.454 259.751Z" fill="#B8C0C6"/>
<path d="M781.071 265.6L436.426 479.789L440.052 485.624L784.698 271.435L781.071 265.6Z" fill="#B9C1C7"/>
<path d="M784.707 271.434L440.062 485.623L443.688 491.458L788.333 277.269L784.707 271.434Z" fill="#BAC2C8"/>
<path d="M788.338 277.26L443.692 491.449L447.319 497.284L791.964 283.095L788.338 277.26Z" fill="#BBC3C9"/>
<path d="M791.955 283.109L447.309 497.298L450.935 503.133L795.581 288.944L791.955 283.109Z" fill="#BCC4CA"/>
<path d="M795.591 288.944L450.945 503.133L454.571 508.967L799.217 294.778L795.591 288.944Z" fill="#BDC5CB"/>
<path d="M799.211 294.77L454.566 508.959L458.192 514.793L802.837 300.604L799.211 294.77Z" fill="#BEC6CC"/>
<path d="M802.838 300.618L458.193 514.808L461.819 520.643L806.465 306.454L802.838 300.618Z" fill="#BFC7CD"/>
<path d="M806.464 306.452L461.819 520.642L465.445 526.477L810.091 312.287L806.464 306.452Z" fill="#C0C8CE"/>
<path d="M810.095 312.279L465.449 526.468L469.076 532.303L813.721 318.114L810.095 312.279Z" fill="#C1C9CF"/>
<path d="M813.722 318.127L469.076 532.316L472.703 538.151L817.348 323.962L813.722 318.127Z" fill="#C1CAD0"/>
<path d="M817.348 323.961L472.702 538.15L476.329 543.985L820.974 329.796L817.348 323.961Z" fill="#C2CBD1"/>
<path d="M820.978 329.787L476.333 543.977L479.959 549.812L824.604 335.623L820.978 329.787Z" fill="#C3CCD2"/>
<path d="M824.595 335.636L479.95 549.825L483.576 555.66L828.221 341.471L824.595 335.636Z" fill="#C4CCD3"/>
<path d="M828.23 341.47L483.585 555.659L487.211 561.494L831.857 347.305L828.23 341.47Z" fill="#C5CDD4"/>
<path d="M831.861 347.306L487.216 561.495L490.842 567.33L835.488 353.141L831.861 347.306Z" fill="#C6CED5"/>
<path d="M835.478 353.145L490.833 567.334L494.459 573.169L839.105 358.98L835.478 353.145Z" fill="#C7CFD6"/>
<path d="M839.114 358.98L494.469 573.169L498.095 579.003L842.74 364.814L839.114 358.98Z" fill="#C8D0D7"/>
<path d="M842.734 364.815L498.089 579.004L501.715 584.839L846.36 370.65L842.734 364.815Z" fill="#C9D1D8"/>
<path d="M846.37 370.65L501.725 584.839L505.351 590.674L849.997 376.485L846.37 370.65Z" fill="#CAD2D9"/>
<path d="M849.988 376.489L505.342 590.678L508.969 596.513L853.614 382.324L849.988 376.489Z" fill="#CAD3DA"/>
<path d="M853.618 382.325L508.973 596.514L512.599 602.349L857.244 388.16L853.618 382.325Z" fill="#CBD4DB"/>
<path d="M857.254 388.159L512.608 602.348L516.235 608.183L860.88 393.994L857.254 388.159Z" fill="#CCD5DC"/>
<path d="M860.866 393.99L516.221 608.179L519.847 614.014L864.492 399.825L860.866 393.99Z" fill="#CDD6DD"/>
<path d="M864.501 399.833L519.856 614.022L523.482 619.858L868.128 405.668L864.501 399.833Z" fill="#CED7DE"/>
<path d="M868.127 405.667L523.481 619.856L527.108 625.692L871.753 411.502L868.127 405.667Z" fill="#CFD8DF"/>
<path d="M871.33 411.91L1018.33 648.47V748.04H602.46L526.67 626.08L871.33 411.91Z" fill="#CFD8DF"/>
</g>
</g>
</svg>
